<svg id="Layer_1" data-name="Layer 1" xmlns="http://www.w3.org/2000/svg" viewBox="0 0 26 26"><defs><style>.cls-1{fill:#898989;}</style></defs><title>icon_dashboard</title><path class="cls-1" d="M14.74,23.5H11.26a.32.32,0,0,1-.32-.32V11.94a.32.32,0,0,1,.32-.32h3.49a.32.32,0,0,1,.32.32V23.18a.32.32,0,0,1-.32.32Zm-3.17-.64h2.85V12.26H11.58Zm0,0"/><path class="cls-1" d="M6.94,23.5H3.45a.32.32,0,0,1-.32-.32V6.87a.32.32,0,0,1,.32-.32H6.94a.32.32,0,0,1,.32.32v16.3a.32.32,0,0,1-.32.32Zm-3.17-.64H6.62V7.19H3.77Zm0,0"/><path class="cls-1" d="M22.55,23.5H19.07a.32.32,0,0,1-.32-.32V2.82a.32.32,0,0,1,.32-.32h3.49a.32.32,0,0,1,.32.32V23.18a.32.32,0,0,1-.32.32Zm-3.17-.64h2.85V3.14H19.38Zm0,0"/></svg>