<svg id="Layer_1" data-name="Layer 1" xmlns="http://www.w3.org/2000/svg" viewBox="0 0 26 26"><defs><style>.cls-1{fill:#374960;}</style></defs><title>icon_user-menu_on</title><path class="cls-1" d="M13,2.5A10.5,10.5,0,1,0,23.5,13,10.5,10.5,0,0,0,13,2.5Zm0,20.29A9.79,9.79,0,1,1,22.79,13,9.79,9.79,0,0,1,13,22.79Z"/><path class="cls-1" d="M13,16.29a5.17,5.17,0,1,0-5.17-5.17A5.17,5.17,0,0,0,13,16.29Zm0-9.7a4.52,4.52,0,1,1-4.52,4.52A4.52,4.52,0,0,1,13,6.59Z"/><path class="cls-1" d="M13.21,17.33h-.42c-4,0-6.3,1.06-7.41,2.53l.52.43C6.89,18.91,9,18,12.8,18h.39c3.77,0,5.85.88,6.87,2.22l.48-.48C19.4,18.34,17.16,17.33,13.21,17.33Z"/></svg>