<svg id="Layer_1" data-name="Layer 1" xmlns="http://www.w3.org/2000/svg" viewBox="0 0 26 26"><defs><style>.cls-1{fill:#898989;}</style></defs><title>icon_reports</title><path class="cls-1" d="M16.15,2.71H6.88A1.23,1.23,0,0,0,5.65,3.94V22.06a1.23,1.23,0,0,0,1.23,1.23H19.12a1.23,1.23,0,0,0,1.23-1.23V6.44A1.3,1.3,0,0,0,20.27,6,1.23,1.23,0,0,0,20,5.62L16.93,3a1.52,1.52,0,0,0-.35-.21A1.69,1.69,0,0,0,16.15,2.71Zm3.46,19.34a.49.49,0,0,1-.49.49H6.88a.49.49,0,0,1-.49-.49V3.94a.49.49,0,0,1,.49-.49h9.47l3.27,2.81Zm0,0"/><path class="cls-1" d="M19.71,5.91H17.23a.49.49,0,0,1-.49-.49V3.28L16,2.92v2.5a1.23,1.23,0,0,0,1.23,1.23h2.84Z"/><path class="cls-1" d="M13,19.47a4.7,4.7,0,1,1,3.33-1.38A4.7,4.7,0,0,1,13,19.47Zm0-8.74a4,4,0,1,0,2.85,1.18A4,4,0,0,0,13,10.73Zm0-.39"/><path class="cls-1" d="M16.23,18.13a.14.14,0,0,1-.1,0L12.9,14.86a.14.14,0,0,1,0-.1V10.2a.14.14,0,0,1,.14-.14c.08,0,.37,0,.37.07v4.51l3.1,3c.17-.18-.09.4-.14.46a.14.14,0,0,1-.1,0Zm0,0"/><path class="cls-1" d="M13,14.9a.14.14,0,0,1-.1,0,.14.14,0,0,1,0-.2l3.23-3.23a.14.14,0,1,1,.2.2L13.1,14.86a.13.13,0,0,1-.1,0Zm0,0"/><path class="cls-1" d="M14.14,16a.14.14,0,0,1-.1-.24L17,12.86a.14.14,0,1,1,.2.2L14.24,16a.14.14,0,0,1-.1,0Zm0,0"/><path class="cls-1" d="M15.3,17.2a.15.15,0,0,1-.1,0,.14.14,0,0,1,0-.2l2.25-2.24a.14.14,0,0,1,.2,0,.15.15,0,0,1,0,.2L15.4,17.16a.14.14,0,0,1-.1,0Zm0,0"/><path class="cls-1" d="M13,12.62a.14.14,0,0,1-.1-.24l1.87-1.87a.14.14,0,0,1,.2.2L13.1,12.58a.14.14,0,0,1-.1,0Zm0,0"/></svg>