<svg id="Layer_1" data-name="Layer 1" xmlns="http://www.w3.org/2000/svg" viewBox="0 0 26 26"><defs><style>.cls-1{fill:#898989;}</style></defs><title>icon_assets</title><path class="cls-1" d="M10.57,9.81H3.94A1.52,1.52,0,0,1,2.43,8.29V4A1.52,1.52,0,0,1,3.94,2.5h6.63A1.51,1.51,0,0,1,12.09,4V8.29a1.51,1.51,0,0,1-1.51,1.51ZM3.94,3.11A.91.91,0,0,0,3,4V8.29a.91.91,0,0,0,.91.91h6.63a.91.91,0,0,0,.91-.91V4a.91.91,0,0,0-.91-.91Zm0,0"/><path class="cls-1" d="M9.57,11.67H4.95a.3.3,0,1,1,0-.61H9.57a.3.3,0,0,1,0,.61Zm0,0"/><path class="cls-1" d="M7.25,11.67a.3.3,0,0,1-.3-.3V9.51a.3.3,0,1,1,.61,0v1.86a.3.3,0,0,1-.31.3Zm0,0"/><path class="cls-1" d="M22.06,21.64H15.43a1.52,1.52,0,0,1-1.51-1.51V15.84a1.52,1.52,0,0,1,1.51-1.51h6.63a1.51,1.51,0,0,1,1.51,1.51v4.28a1.51,1.51,0,0,1-1.51,1.51Zm-6.63-6.7a.91.91,0,0,0-.91.91v4.28a.91.91,0,0,0,.91.91h6.63a.91.91,0,0,0,.91-.91V15.84a.91.91,0,0,0-.91-.91Zm0,0"/><path class="cls-1" d="M21.06,23.5H16.43a.3.3,0,1,1,0-.61h4.62a.3.3,0,0,1,0,.61Zm0,0"/><path class="cls-1" d="M18.74,23.5a.3.3,0,0,1-.3-.3V21.34a.3.3,0,1,1,.61,0V23.2a.3.3,0,0,1-.31.3Zm0,0"/><path class="cls-1" d="M22.06,3.11A.91.91,0,0,1,23,4v6.45h.6V4A1.51,1.51,0,0,0,22.06,2.5H15v.61Z"/><path class="cls-1" d="M3.94,21.14A.91.91,0,0,1,3,20.23V13.78h-.6v6.45a1.51,1.51,0,0,0,1.51,1.51H11v-.61Z"/></svg>