<?xml version="1.0" encoding="utf-8"?>
<!-- Generator: Adobe Illustrator 21.1.0, SVG Export Plug-In . SVG Version: 6.00 Build 0)  -->
<svg version="1.1" id="Layer_1" xmlns="http://www.w3.org/2000/svg" xmlns:xlink="http://www.w3.org/1999/xlink" x="0px" y="0px"
	 viewBox="0 0 26 26" style="enable-background:new 0 0 26 26;" xml:space="preserve">
<style type="text/css">
	.st0{fill:#FFFFFF;}
	.st1{fill:none;}
</style>
<title>icon_user-menu</title>
<path class="st0" d="M13,2.5C7.2,2.5,2.5,7.2,2.5,13S7.2,23.5,13,23.5S23.5,18.8,23.5,13S18.8,2.5,13,2.5z M13,22.8
	c-5.4,0-9.8-4.4-9.8-9.8S7.6,3.2,13,3.2s9.8,4.4,9.8,9.8S18.4,22.8,13,22.8C13,22.8,13,22.8,13,22.8z"/>
<circle class="st1" cx="13" cy="11.1" r="4.5"/>
<path class="st0" d="M13,16.3c2.9,0,5.2-2.3,5.2-5.2S15.9,6,13,6s-5.2,2.3-5.2,5.2l0,0C7.8,14,10.1,16.3,13,16.3z M13,6.6
	c2.5,0,4.5,2,4.5,4.5s-2,4.5-4.5,4.5s-4.5-2-4.5-4.5S10.5,6.6,13,6.6C13,6.6,13,6.6,13,6.6z"/>
<path class="st0" d="M13.2,17.3h-0.4c-4,0-6.3,1.1-7.4,2.5l0.5,0.4c1-1.4,3.1-2.3,6.9-2.3h0.4c3.8,0,5.9,0.9,6.9,2.2l0.5-0.5
	C19.4,18.3,17.2,17.3,13.2,17.3z"/>
</svg>
