<svg id="Layer_1" data-name="Layer 1" xmlns="http://www.w3.org/2000/svg" viewBox="0 0 26 26"><defs><style>.cls-1{fill:#898989;}</style></defs><title>icon_discovery</title><path class="cls-1" d="M13,2.5A10.5,10.5,0,1,0,23.5,13,10.5,10.5,0,0,0,13,2.5Zm0,20.29A9.79,9.79,0,1,1,22.79,13,9.79,9.79,0,0,1,13,22.79Z"/><path class="cls-1" d="M13,5.84A7.16,7.16,0,1,0,20.16,13,7.16,7.16,0,0,0,13,5.84Zm0,13.61A6.45,6.45,0,1,1,19.45,13,6.45,6.45,0,0,1,13,19.45Z"/><path class="cls-1" d="M13,9a4,4,0,1,0,4,4A4,4,0,0,0,13,9Zm0,7.21A3.26,3.26,0,1,1,16.26,13,3.26,3.26,0,0,1,13,16.26Z"/><path class="cls-1" d="M13.15,12.56l-.51.51,7.22,7.42a.35.35,0,0,0,.26.11.36.36,0,0,0,.26-.61Z"/><circle class="cls-1" cx="19.8" cy="12.65" r="0.87"/><circle class="cls-1" cx="13.17" cy="9.45" r="0.87"/></svg>