<?xml version="1.0" encoding="utf-8"?>
<!-- Generator: Adobe Illustrator 21.1.0, SVG Export Plug-In . SVG Version: 6.00 Build 0)  -->
<svg version="1.1" id="Layer_1" xmlns="http://www.w3.org/2000/svg" xmlns:xlink="http://www.w3.org/1999/xlink" x="0px" y="0px"
	 viewBox="0 0 26 26" style="enable-background:new 0 0 26 26;" xml:space="preserve">
<style type="text/css">
	.st0{fill:#FFFFFF;}
</style>
<title>icon_menu</title>
<path class="st0" d="M20.7,6.9v0.2c0,0.1-0.1,0.2-0.2,0.2h-15c-0.1,0-0.2-0.1-0.2-0.2V6.9c0-0.1,0.1-0.2,0.2-0.2h15
	C20.6,6.7,20.7,6.8,20.7,6.9z"/>
<path class="st0" d="M20.7,12.9v0.2c0,0.1-0.1,0.2-0.2,0.2h-15c-0.1,0-0.2-0.1-0.2-0.2v-0.2c0-0.1,0.1-0.2,0.2-0.2h15
	C20.6,12.7,20.7,12.8,20.7,12.9z"/>
<path class="st0" d="M20.7,18.9v0.2c0,0.1-0.1,0.2-0.2,0.2h-15c-0.1,0-0.2-0.1-0.2-0.2v-0.2c0-0.1,0.1-0.2,0.2-0.2h15
	C20.6,18.7,20.7,18.8,20.7,18.9z"/>
</svg>
