<svg id="Layer_1" data-name="Layer 1" xmlns="http://www.w3.org/2000/svg" viewBox="0 0 26 26"><defs><style>.cls-1{fill:#898989;}</style></defs><title>icon_configuration</title><path class="cls-1" d="M22.42,10.67h-2a.75.75,0,0,1-.53-1.29L21.31,8a1.08,1.08,0,0,0,0-1.53L19.54,4.69a1.11,1.11,0,0,0-1.53,0L16.62,6.08a.75.75,0,0,1-1.29-.53v-2A1.08,1.08,0,0,0,14.25,2.5h-2.5a1.08,1.08,0,0,0-1.08,1.08v2a.75.75,0,0,1-1.29.53L8,4.69a1.11,1.11,0,0,0-1.53,0L4.69,6.46A1.08,1.08,0,0,0,4.69,8L6.08,9.38a.75.75,0,0,1-.53,1.29h-2A1.08,1.08,0,0,0,2.5,11.75v2.51a1.08,1.08,0,0,0,1.08,1.08h2a.75.75,0,0,1,.53,1.29L4.69,18a1.08,1.08,0,0,0,0,1.53l1.77,1.77a1.11,1.11,0,0,0,1.53,0l1.39-1.39a.75.75,0,0,1,1.29.53v2a1.08,1.08,0,0,0,1.08,1.08h2.5a1.08,1.08,0,0,0,1.08-1.08v-2a.75.75,0,0,1,1.29-.53L18,21.31a1.11,1.11,0,0,0,1.53,0l1.77-1.77a1.08,1.08,0,0,0,0-1.53l-1.39-1.39a.75.75,0,0,1,.53-1.29h2a1.08,1.08,0,0,0,1.08-1.08V11.75a1.08,1.08,0,0,0-1.08-1.08Zm.3,3.59a.3.3,0,0,1-.3.3h-2a1.53,1.53,0,0,0-1.08,2.61l1.39,1.39a.3.3,0,0,1,0,.43L19,20.76a.3.3,0,0,1-.43,0l-1.39-1.39a1.53,1.53,0,0,0-2.61,1.08v2a.3.3,0,0,1-.3.3h-2.5a.31.31,0,0,1-.3-.3v-2A1.51,1.51,0,0,0,10.5,19a1.54,1.54,0,0,0-.6-.12,1.51,1.51,0,0,0-1.07.45L7.44,20.76a.3.3,0,0,1-.43,0L5.24,19a.31.31,0,0,1,0-.43l1.39-1.39a1.53,1.53,0,0,0-1.08-2.61h-2a.3.3,0,0,1-.3-.3V11.75a.3.3,0,0,1,.3-.3h2A1.53,1.53,0,0,0,6.63,8.83L5.24,7.44a.31.31,0,0,1,0-.43L7,5.24a.31.31,0,0,1,.43,0L8.83,6.63a1.53,1.53,0,0,0,2.61-1.08v-2a.3.3,0,0,1,.3-.3h2.5a.3.3,0,0,1,.3.3v2a1.53,1.53,0,0,0,2.61,1.08l1.39-1.39a.31.31,0,0,1,.43,0L20.76,7a.3.3,0,0,1,0,.43L19.37,8.83a1.53,1.53,0,0,0,1.08,2.62h2a.3.3,0,0,1,.3.3Zm0,0"/><path class="cls-1" d="M13,9.5A3.5,3.5,0,1,0,16.5,13,3.51,3.51,0,0,0,13,9.5Zm0,6.22A2.72,2.72,0,1,1,15.72,13,2.73,2.73,0,0,1,13,15.72Zm0,0"/></svg>